%TF.GenerationSoftware,KiCad,Pcbnew,(6.0.10)*%
%TF.CreationDate,2023-02-17T12:01:16-08:00*%
%TF.ProjectId,lab5exercise2,6c616235-6578-4657-9263-697365322e6b,rev?*%
%TF.SameCoordinates,Original*%
%TF.FileFunction,Copper,L1,Top*%
%TF.FilePolarity,Positive*%
%FSLAX46Y46*%
G04 Gerber Fmt 4.6, Leading zero omitted, Abs format (unit mm)*
G04 Created by KiCad (PCBNEW (6.0.10)) date 2023-02-17 12:01:16*
%MOMM*%
%LPD*%
G01*
G04 APERTURE LIST*
G04 Aperture macros list*
%AMRoundRect*
0 Rectangle with rounded corners*
0 $1 Rounding radius*
0 $2 $3 $4 $5 $6 $7 $8 $9 X,Y pos of 4 corners*
0 Add a 4 corners polygon primitive as box body*
4,1,4,$2,$3,$4,$5,$6,$7,$8,$9,$2,$3,0*
0 Add four circle primitives for the rounded corners*
1,1,$1+$1,$2,$3*
1,1,$1+$1,$4,$5*
1,1,$1+$1,$6,$7*
1,1,$1+$1,$8,$9*
0 Add four rect primitives between the rounded corners*
20,1,$1+$1,$2,$3,$4,$5,0*
20,1,$1+$1,$4,$5,$6,$7,0*
20,1,$1+$1,$6,$7,$8,$9,0*
20,1,$1+$1,$8,$9,$2,$3,0*%
G04 Aperture macros list end*
%TA.AperFunction,SMDPad,CuDef*%
%ADD10RoundRect,0.250001X0.462499X0.624999X-0.462499X0.624999X-0.462499X-0.624999X0.462499X-0.624999X0*%
%TD*%
%TA.AperFunction,SMDPad,CuDef*%
%ADD11RoundRect,0.250000X-0.450000X0.350000X-0.450000X-0.350000X0.450000X-0.350000X0.450000X0.350000X0*%
%TD*%
%TA.AperFunction,SMDPad,CuDef*%
%ADD12RoundRect,0.250000X0.450000X-0.350000X0.450000X0.350000X-0.450000X0.350000X-0.450000X-0.350000X0*%
%TD*%
%TA.AperFunction,SMDPad,CuDef*%
%ADD13RoundRect,0.150000X-0.825000X-0.150000X0.825000X-0.150000X0.825000X0.150000X-0.825000X0.150000X0*%
%TD*%
%TA.AperFunction,SMDPad,CuDef*%
%ADD14R,2.290000X3.000000*%
%TD*%
%TA.AperFunction,SMDPad,CuDef*%
%ADD15RoundRect,0.250000X0.350000X0.450000X-0.350000X0.450000X-0.350000X-0.450000X0.350000X-0.450000X0*%
%TD*%
%TA.AperFunction,SMDPad,CuDef*%
%ADD16RoundRect,0.250000X0.425000X-0.537500X0.425000X0.537500X-0.425000X0.537500X-0.425000X-0.537500X0*%
%TD*%
%TA.AperFunction,SMDPad,CuDef*%
%ADD17RoundRect,0.250001X-0.462499X-0.624999X0.462499X-0.624999X0.462499X0.624999X-0.462499X0.624999X0*%
%TD*%
%TA.AperFunction,SMDPad,CuDef*%
%ADD18RoundRect,0.250000X0.337500X0.475000X-0.337500X0.475000X-0.337500X-0.475000X0.337500X-0.475000X0*%
%TD*%
%TA.AperFunction,ComponentPad*%
%ADD19R,3.000000X3.000000*%
%TD*%
%TA.AperFunction,ComponentPad*%
%ADD20C,3.000000*%
%TD*%
%TA.AperFunction,ViaPad*%
%ADD21C,0.800000*%
%TD*%
%TA.AperFunction,Conductor*%
%ADD22C,0.250000*%
%TD*%
G04 APERTURE END LIST*
D10*
%TO.P,D2,1,K*%
%TO.N,GND*%
X143727500Y-106680000D03*
%TO.P,D2,2,A*%
%TO.N,Net-(D2-Pad2)*%
X140752500Y-106680000D03*
%TD*%
D11*
%TO.P,R3,1*%
%TO.N,Net-(D1-Pad1)*%
X139700000Y-92980000D03*
%TO.P,R3,2*%
%TO.N,/pin_3*%
X139700000Y-94980000D03*
%TD*%
D12*
%TO.P,R1,1*%
%TO.N,+9V*%
X165100000Y-87360000D03*
%TO.P,R1,2*%
%TO.N,/pin_7*%
X165100000Y-85360000D03*
%TD*%
D13*
%TO.P,U1,1,GND*%
%TO.N,GND*%
X148937500Y-92075000D03*
%TO.P,U1,2,TR*%
%TO.N,/pin_2*%
X148937500Y-93345000D03*
%TO.P,U1,3,Q*%
%TO.N,/pin_3*%
X148937500Y-94615000D03*
%TO.P,U1,4,R*%
%TO.N,+9V*%
X148937500Y-95885000D03*
%TO.P,U1,5,CV*%
%TO.N,Net-(C2-Pad1)*%
X153887500Y-95885000D03*
%TO.P,U1,6,THR*%
%TO.N,/pin_2*%
X153887500Y-94615000D03*
%TO.P,U1,7,DIS*%
%TO.N,/pin_7*%
X153887500Y-93345000D03*
%TO.P,U1,8,VCC*%
%TO.N,+9V*%
X153887500Y-92075000D03*
D14*
%TO.P,U1,9*%
%TO.N,N/C*%
X151412500Y-93980000D03*
%TD*%
D15*
%TO.P,R2,1*%
%TO.N,/pin_7*%
X155940000Y-83195000D03*
%TO.P,R2,2*%
%TO.N,/pin_2*%
X153940000Y-83195000D03*
%TD*%
D16*
%TO.P,C1,1*%
%TO.N,/pin_2*%
X137165000Y-86475000D03*
%TO.P,C1,2*%
%TO.N,GND*%
X137165000Y-83600000D03*
%TD*%
D17*
%TO.P,D1,1,K*%
%TO.N,Net-(D1-Pad1)*%
X145832500Y-83820000D03*
%TO.P,D1,2,A*%
%TO.N,+9V*%
X148807500Y-83820000D03*
%TD*%
D11*
%TO.P,R4,1*%
%TO.N,/pin_3*%
X139700000Y-99600000D03*
%TO.P,R4,2*%
%TO.N,Net-(D2-Pad2)*%
X139700000Y-101600000D03*
%TD*%
D18*
%TO.P,C2,1*%
%TO.N,Net-(C2-Pad1)*%
X151077500Y-101122504D03*
%TO.P,C2,2*%
%TO.N,GND*%
X149002500Y-101122504D03*
%TD*%
D19*
%TO.P,J1,1,Pin_1*%
%TO.N,+9V*%
X129540000Y-96520000D03*
D20*
%TO.P,J1,2,Pin_2*%
%TO.N,GND*%
X129540000Y-91440000D03*
%TD*%
D21*
%TO.N,/pin_2*%
X147320000Y-78740000D03*
X154940000Y-86360000D03*
X160020000Y-91440000D03*
X137160000Y-88900000D03*
%TO.N,Net-(D1-Pad1)*%
X142240000Y-86360000D03*
X139700000Y-91440000D03*
%TO.N,+9V*%
X147320000Y-106680000D03*
X147320000Y-88900000D03*
X134620000Y-96520000D03*
X144780000Y-96520000D03*
%TD*%
D22*
%TO.N,/pin_2*%
X151775000Y-83195000D02*
X147320000Y-78740000D01*
X156845000Y-94615000D02*
X160020000Y-91440000D01*
X144035000Y-93345000D02*
X137165000Y-86475000D01*
X153940000Y-83195000D02*
X154940000Y-84195000D01*
X153887500Y-94615000D02*
X156845000Y-94615000D01*
X137160000Y-86480000D02*
X137160000Y-88900000D01*
X137165000Y-86475000D02*
X137160000Y-86480000D01*
X148937500Y-93345000D02*
X144035000Y-93345000D01*
X154940000Y-84195000D02*
X154940000Y-86360000D01*
X153940000Y-83195000D02*
X151775000Y-83195000D01*
%TO.N,GND*%
X143727500Y-106680000D02*
X143727500Y-106397504D01*
X137165000Y-83815000D02*
X129540000Y-91440000D01*
X143727500Y-106397504D02*
X149002500Y-101122504D01*
X127715000Y-93265000D02*
X129540000Y-91440000D01*
X148937500Y-92075000D02*
X145640000Y-92075000D01*
X145640000Y-92075000D02*
X137165000Y-83600000D01*
X127715000Y-98345000D02*
X127715000Y-93265000D01*
X137165000Y-83600000D02*
X137165000Y-83815000D01*
X142527500Y-107880000D02*
X137250000Y-107880000D01*
X143727500Y-106680000D02*
X142527500Y-107880000D01*
X137250000Y-107880000D02*
X127715000Y-98345000D01*
%TO.N,Net-(C2-Pad1)*%
X151077500Y-101122504D02*
X151077500Y-98695000D01*
X151077500Y-98695000D02*
X153887500Y-95885000D01*
%TO.N,Net-(D1-Pad1)*%
X139700000Y-92980000D02*
X139700000Y-91440000D01*
X143292500Y-86360000D02*
X142240000Y-86360000D01*
X145832500Y-83820000D02*
X143292500Y-86360000D01*
%TO.N,+9V*%
X165100000Y-87360000D02*
X165100000Y-88900000D01*
X150712500Y-88900000D02*
X147320000Y-88900000D01*
X145415000Y-95885000D02*
X144780000Y-96520000D01*
X148937500Y-95885000D02*
X145415000Y-95885000D01*
X134620000Y-96520000D02*
X129540000Y-96520000D01*
X148807500Y-83820000D02*
X147320000Y-85307500D01*
X153887500Y-92075000D02*
X150712500Y-88900000D01*
X147320000Y-85307500D02*
X147320000Y-88900000D01*
X165100000Y-88900000D02*
X147320000Y-106680000D01*
%TO.N,Net-(D2-Pad2)*%
X140752500Y-106680000D02*
X139700000Y-105627500D01*
X139700000Y-105627500D02*
X139700000Y-101600000D01*
%TO.N,/pin_7*%
X158105000Y-85360000D02*
X158105000Y-89504251D01*
X158105000Y-85360000D02*
X155940000Y-83195000D01*
X165100000Y-85360000D02*
X158105000Y-85360000D01*
X158105000Y-89504251D02*
X154264251Y-93345000D01*
X154264251Y-93345000D02*
X153887500Y-93345000D01*
%TO.N,/pin_3*%
X139700000Y-99600000D02*
X139700000Y-94980000D01*
X140065000Y-94615000D02*
X148937500Y-94615000D01*
X139700000Y-94980000D02*
X140065000Y-94615000D01*
%TD*%
%TA.AperFunction,Conductor*%
%TO.N,GND*%
G36*
X169613621Y-74188502D02*
G01*
X169660114Y-74242158D01*
X169671500Y-74294500D01*
X169671500Y-111125500D01*
X169651498Y-111193621D01*
X169597842Y-111240114D01*
X169545500Y-111251500D01*
X122554500Y-111251500D01*
X122486379Y-111231498D01*
X122439886Y-111177842D01*
X122428500Y-111125500D01*
X122428500Y-98068134D01*
X127531500Y-98068134D01*
X127538255Y-98130316D01*
X127589385Y-98266705D01*
X127676739Y-98383261D01*
X127793295Y-98470615D01*
X127929684Y-98521745D01*
X127991866Y-98528500D01*
X131088134Y-98528500D01*
X131150316Y-98521745D01*
X131286705Y-98470615D01*
X131403261Y-98383261D01*
X131490615Y-98266705D01*
X131541745Y-98130316D01*
X131548500Y-98068134D01*
X131548500Y-97279500D01*
X131568502Y-97211379D01*
X131622158Y-97164886D01*
X131674500Y-97153500D01*
X133911800Y-97153500D01*
X133979921Y-97173502D01*
X133999147Y-97189843D01*
X133999420Y-97189540D01*
X134004332Y-97193963D01*
X134008747Y-97198866D01*
X134163248Y-97311118D01*
X134169276Y-97313802D01*
X134169278Y-97313803D01*
X134331681Y-97386109D01*
X134337712Y-97388794D01*
X134431112Y-97408647D01*
X134518056Y-97427128D01*
X134518061Y-97427128D01*
X134524513Y-97428500D01*
X134715487Y-97428500D01*
X134721939Y-97427128D01*
X134721944Y-97427128D01*
X134808888Y-97408647D01*
X134902288Y-97388794D01*
X134908319Y-97386109D01*
X135070722Y-97313803D01*
X135070724Y-97313802D01*
X135076752Y-97311118D01*
X135231253Y-97198866D01*
X135359040Y-97056944D01*
X135454527Y-96891556D01*
X135513542Y-96709928D01*
X135515525Y-96691067D01*
X135532814Y-96526565D01*
X135533504Y-96520000D01*
X135513542Y-96330072D01*
X135454527Y-96148444D01*
X135426000Y-96099033D01*
X135415065Y-96080094D01*
X135359040Y-95983056D01*
X135310643Y-95929305D01*
X135235675Y-95846045D01*
X135235674Y-95846044D01*
X135231253Y-95841134D01*
X135076752Y-95728882D01*
X135070724Y-95726198D01*
X135070722Y-95726197D01*
X134908319Y-95653891D01*
X134908318Y-95653891D01*
X134902288Y-95651206D01*
X134778962Y-95624992D01*
X134721944Y-95612872D01*
X134721939Y-95612872D01*
X134715487Y-95611500D01*
X134524513Y-95611500D01*
X134518061Y-95612872D01*
X134518056Y-95612872D01*
X134461038Y-95624992D01*
X134337712Y-95651206D01*
X134331682Y-95653891D01*
X134331681Y-95653891D01*
X134169278Y-95726197D01*
X134169276Y-95726198D01*
X134163248Y-95728882D01*
X134008747Y-95841134D01*
X134004332Y-95846037D01*
X133999420Y-95850460D01*
X133998295Y-95849211D01*
X133944986Y-95882051D01*
X133911800Y-95886500D01*
X131674500Y-95886500D01*
X131606379Y-95866498D01*
X131559886Y-95812842D01*
X131548500Y-95760500D01*
X131548500Y-94971866D01*
X131541745Y-94909684D01*
X131490615Y-94773295D01*
X131403261Y-94656739D01*
X131286705Y-94569385D01*
X131150316Y-94518255D01*
X131088134Y-94511500D01*
X127991866Y-94511500D01*
X127929684Y-94518255D01*
X127793295Y-94569385D01*
X127676739Y-94656739D01*
X127589385Y-94773295D01*
X127538255Y-94909684D01*
X127531500Y-94971866D01*
X127531500Y-98068134D01*
X122428500Y-98068134D01*
X122428500Y-93029654D01*
X128315618Y-93029654D01*
X128322673Y-93039627D01*
X128353679Y-93065551D01*
X128360598Y-93070579D01*
X128585272Y-93211515D01*
X128592807Y-93215556D01*
X128834520Y-93324694D01*
X128842551Y-93327680D01*
X129096832Y-93403002D01*
X129105184Y-93404869D01*
X129367340Y-93444984D01*
X129375874Y-93445700D01*
X129641045Y-93449867D01*
X129649596Y-93449418D01*
X129912883Y-93417557D01*
X129921284Y-93415955D01*
X130177824Y-93348653D01*
X130185926Y-93345926D01*
X130430949Y-93244434D01*
X130438617Y-93240628D01*
X130667598Y-93106822D01*
X130674679Y-93102009D01*
X130754655Y-93039301D01*
X130763125Y-93027442D01*
X130756608Y-93015818D01*
X129552812Y-91812022D01*
X129538868Y-91804408D01*
X129537035Y-91804539D01*
X129530420Y-91808790D01*
X128322910Y-93016300D01*
X128315618Y-93029654D01*
X122428500Y-93029654D01*
X122428500Y-91423204D01*
X127527665Y-91423204D01*
X127542932Y-91687969D01*
X127544005Y-91696470D01*
X127595065Y-91956722D01*
X127597276Y-91964974D01*
X127683184Y-92215894D01*
X127686499Y-92223779D01*
X127805664Y-92460713D01*
X127810020Y-92468079D01*
X127939347Y-92656250D01*
X127949601Y-92664594D01*
X127963342Y-92657448D01*
X129167978Y-91452812D01*
X129174356Y-91441132D01*
X129904408Y-91441132D01*
X129904539Y-91442965D01*
X129908790Y-91449580D01*
X131115730Y-92656520D01*
X131127939Y-92663187D01*
X131139439Y-92654497D01*
X131236831Y-92521913D01*
X131241418Y-92514685D01*
X131367962Y-92281621D01*
X131371530Y-92273827D01*
X131465271Y-92025750D01*
X131467748Y-92017544D01*
X131526954Y-91759038D01*
X131528294Y-91750577D01*
X131552031Y-91484616D01*
X131552277Y-91479677D01*
X131552666Y-91442485D01*
X131552523Y-91437519D01*
X131534362Y-91171123D01*
X131533201Y-91162649D01*
X131479419Y-90902944D01*
X131477120Y-90894709D01*
X131388588Y-90644705D01*
X131385191Y-90636854D01*
X131263550Y-90401178D01*
X131259122Y-90393866D01*
X131140031Y-90224417D01*
X131129509Y-90216037D01*
X131116121Y-90223089D01*
X129912022Y-91427188D01*
X129904408Y-91441132D01*
X129174356Y-91441132D01*
X129175592Y-91438868D01*
X129175461Y-91437035D01*
X129171210Y-91430420D01*
X127963814Y-90223024D01*
X127951804Y-90216466D01*
X127940064Y-90225434D01*
X127831935Y-90375911D01*
X127827418Y-90383196D01*
X127703325Y-90617567D01*
X127699839Y-90625395D01*
X127608700Y-90874446D01*
X127606311Y-90882670D01*
X127549812Y-91141795D01*
X127548563Y-91150250D01*
X127527754Y-91414653D01*
X127527665Y-91423204D01*
X122428500Y-91423204D01*
X122428500Y-89852500D01*
X128316584Y-89852500D01*
X128322980Y-89863770D01*
X129527188Y-91067978D01*
X129541132Y-91075592D01*
X129542965Y-91075461D01*
X129549580Y-91071210D01*
X130756604Y-89864186D01*
X130763795Y-89851017D01*
X130756473Y-89840780D01*
X130709233Y-89802115D01*
X130702261Y-89797160D01*
X130476122Y-89658582D01*
X130468552Y-89654624D01*
X130225704Y-89548022D01*
X130217644Y-89545120D01*
X129962592Y-89472467D01*
X129954214Y-89470685D01*
X129691656Y-89433318D01*
X129683111Y-89432691D01*
X129417908Y-89431302D01*
X129409374Y-89431839D01*
X129146433Y-89466456D01*
X129138035Y-89468149D01*
X128882238Y-89538127D01*
X128874143Y-89540946D01*
X128630199Y-89644997D01*
X128622577Y-89648881D01*
X128395013Y-89785075D01*
X128387981Y-89789962D01*
X128325053Y-89840377D01*
X128316584Y-89852500D01*
X122428500Y-89852500D01*
X122428500Y-87062900D01*
X135981500Y-87062900D01*
X135981837Y-87066146D01*
X135981837Y-87066150D01*
X135990932Y-87153803D01*
X135992474Y-87168666D01*
X135994655Y-87175202D01*
X135994655Y-87175204D01*
X136012534Y-87228794D01*
X136048450Y-87336446D01*
X136141522Y-87486848D01*
X136266697Y-87611805D01*
X136417262Y-87704615D01*
X136424210Y-87706919D01*
X136424211Y-87706920D01*
X136440166Y-87712212D01*
X136498526Y-87752642D01*
X136525764Y-87818206D01*
X136526500Y-87831805D01*
X136526500Y-88197476D01*
X136506498Y-88265597D01*
X136494142Y-88281779D01*
X136420960Y-88363056D01*
X136325473Y-88528444D01*
X136266458Y-88710072D01*
X136246496Y-88900000D01*
X136247186Y-88906565D01*
X136265220Y-89078145D01*
X136266458Y-89089928D01*
X136325473Y-89271556D01*
X136420960Y-89436944D01*
X136548747Y-89578866D01*
X136566772Y-89591962D01*
X136653019Y-89654624D01*
X136703248Y-89691118D01*
X136709276Y-89693802D01*
X136709278Y-89693803D01*
X136871681Y-89766109D01*
X136877712Y-89768794D01*
X136954308Y-89785075D01*
X137058056Y-89807128D01*
X137058061Y-89807128D01*
X137064513Y-89808500D01*
X137255487Y-89808500D01*
X137261939Y-89807128D01*
X137261944Y-89807128D01*
X137365692Y-89785075D01*
X137442288Y-89768794D01*
X137448319Y-89766109D01*
X137610722Y-89693803D01*
X137610724Y-89693802D01*
X137616752Y-89691118D01*
X137666982Y-89654624D01*
X137753228Y-89591962D01*
X137771253Y-89578866D01*
X137899040Y-89436944D01*
X137994527Y-89271556D01*
X138053542Y-89089928D01*
X138054781Y-89078145D01*
X138072814Y-88906565D01*
X138073504Y-88900000D01*
X138053542Y-88710072D01*
X137998833Y-88541696D01*
X137996805Y-88470729D01*
X138033468Y-88409931D01*
X138097180Y-88378605D01*
X138167714Y-88386698D01*
X138207761Y-88413665D01*
X140191972Y-90397876D01*
X140225998Y-90460188D01*
X140220933Y-90531003D01*
X140178386Y-90587839D01*
X140111866Y-90612650D01*
X140051628Y-90602078D01*
X139988319Y-90573891D01*
X139988318Y-90573891D01*
X139982288Y-90571206D01*
X139888887Y-90551353D01*
X139801944Y-90532872D01*
X139801939Y-90532872D01*
X139795487Y-90531500D01*
X139604513Y-90531500D01*
X139598061Y-90532872D01*
X139598056Y-90532872D01*
X139511113Y-90551353D01*
X139417712Y-90571206D01*
X139411682Y-90573891D01*
X139411681Y-90573891D01*
X139249278Y-90646197D01*
X139249276Y-90646198D01*
X139243248Y-90648882D01*
X139088747Y-90761134D01*
X139084326Y-90766044D01*
X139084325Y-90766045D01*
X138968476Y-90894709D01*
X138960960Y-90903056D01*
X138865473Y-91068444D01*
X138806458Y-91250072D01*
X138805768Y-91256633D01*
X138805768Y-91256635D01*
X138804062Y-91272865D01*
X138786496Y-91440000D01*
X138806458Y-91629928D01*
X138865473Y-91811556D01*
X138874292Y-91826832D01*
X138891031Y-91895825D01*
X138867812Y-91962917D01*
X138831479Y-91996975D01*
X138775652Y-92031522D01*
X138650695Y-92156697D01*
X138646855Y-92162927D01*
X138646854Y-92162928D01*
X138572628Y-92283345D01*
X138557885Y-92307262D01*
X138544662Y-92347128D01*
X138504545Y-92468079D01*
X138502203Y-92475139D01*
X138491500Y-92579600D01*
X138491500Y-93380400D01*
X138491837Y-93383646D01*
X138491837Y-93383650D01*
X138498708Y-93449867D01*
X138502474Y-93486166D01*
X138504655Y-93492702D01*
X138504655Y-93492704D01*
X138537924Y-93592421D01*
X138558450Y-93653946D01*
X138651522Y-93804348D01*
X138656704Y-93809521D01*
X138738109Y-93890784D01*
X138772188Y-93953066D01*
X138767185Y-94023886D01*
X138738264Y-94068975D01*
X138650695Y-94156697D01*
X138557885Y-94307262D01*
X138502203Y-94475139D01*
X138491500Y-94579600D01*
X138491500Y-95380400D01*
X138491837Y-95383646D01*
X138491837Y-95383650D01*
X138501732Y-95479012D01*
X138502474Y-95486166D01*
X138558450Y-95653946D01*
X138651522Y-95804348D01*
X138776697Y-95929305D01*
X138782927Y-95933145D01*
X138782928Y-95933146D01*
X138905178Y-96008502D01*
X138927262Y-96022115D01*
X138975977Y-96038273D01*
X138980168Y-96039663D01*
X139038527Y-96080094D01*
X139065764Y-96145658D01*
X139066500Y-96159256D01*
X139066500Y-98420803D01*
X139046498Y-98488924D01*
X138992842Y-98535417D01*
X138980377Y-98540326D01*
X138932998Y-98556133D01*
X138932996Y-98556134D01*
X138926054Y-98558450D01*
X138775652Y-98651522D01*
X138650695Y-98776697D01*
X138557885Y-98927262D01*
X138502203Y-99095139D01*
X138491500Y-99199600D01*
X138491500Y-100000400D01*
X138502474Y-100106166D01*
X138504655Y-100112702D01*
X138504655Y-100112704D01*
X138527355Y-100180744D01*
X138558450Y-100273946D01*
X138651522Y-100424348D01*
X138712080Y-100484800D01*
X138738109Y-100510784D01*
X138772188Y-100573066D01*
X138767185Y-100643886D01*
X138738264Y-100688975D01*
X138725348Y-100701914D01*
X138650695Y-100776697D01*
X138646855Y-100782927D01*
X138646854Y-100782928D01*
X138596863Y-100864029D01*
X138557885Y-100927262D01*
X138502203Y-101095139D01*
X138491500Y-101199600D01*
X138491500Y-102000400D01*
X138491837Y-102003646D01*
X138491837Y-102003650D01*
X138498914Y-102071852D01*
X138502474Y-102106166D01*
X138558450Y-102273946D01*
X138651522Y-102424348D01*
X138776697Y-102549305D01*
X138927262Y-102642115D01*
X138980168Y-102659663D01*
X139038527Y-102700094D01*
X139065764Y-102765658D01*
X139066500Y-102779256D01*
X139066500Y-105548733D01*
X139065973Y-105559916D01*
X139064298Y-105567409D01*
X139064547Y-105575335D01*
X139064547Y-105575336D01*
X139066438Y-105635486D01*
X139066500Y-105639445D01*
X139066500Y-105667356D01*
X139066997Y-105671290D01*
X139066997Y-105671291D01*
X139067005Y-105671356D01*
X139067938Y-105683193D01*
X139069327Y-105727389D01*
X139074978Y-105746839D01*
X139078987Y-105766200D01*
X139081526Y-105786297D01*
X139084445Y-105793668D01*
X139084445Y-105793670D01*
X139097804Y-105827412D01*
X139101649Y-105838642D01*
X139113982Y-105881093D01*
X139118015Y-105887912D01*
X139118017Y-105887917D01*
X139124293Y-105898528D01*
X139132988Y-105916276D01*
X139140448Y-105935117D01*
X139145110Y-105941533D01*
X139145110Y-105941534D01*
X139166436Y-105970887D01*
X139172952Y-105980807D01*
X139188955Y-106007866D01*
X139195458Y-106018862D01*
X139209779Y-106033183D01*
X139222619Y-106048216D01*
X139234528Y-106064607D01*
X139240634Y-106069658D01*
X139268605Y-106092798D01*
X139277384Y-106100788D01*
X139494595Y-106317999D01*
X139528621Y-106380311D01*
X139531500Y-106407094D01*
X139531500Y-107355400D01*
X139531837Y-107358646D01*
X139531837Y-107358650D01*
X139541752Y-107454203D01*
X139542474Y-107461165D01*
X139544655Y-107467701D01*
X139544655Y-107467703D01*
X139546690Y-107473803D01*
X139598450Y-107628945D01*
X139691522Y-107779348D01*
X139816697Y-107904305D01*
X139822927Y-107908145D01*
X139822928Y-107908146D01*
X139960090Y-107992694D01*
X139967262Y-107997115D01*
X140047005Y-108023564D01*
X140128611Y-108050632D01*
X140128613Y-108050632D01*
X140135139Y-108052797D01*
X140141975Y-108053497D01*
X140141978Y-108053498D01*
X140185031Y-108057909D01*
X140239600Y-108063500D01*
X141265400Y-108063500D01*
X141268646Y-108063163D01*
X141268650Y-108063163D01*
X141364307Y-108053238D01*
X141364311Y-108053237D01*
X141371165Y-108052526D01*
X141377701Y-108050345D01*
X141377703Y-108050345D01*
X141509805Y-108006272D01*
X141538945Y-107996550D01*
X141689348Y-107903478D01*
X141814305Y-107778303D01*
X141907115Y-107627738D01*
X141960196Y-107467703D01*
X141960632Y-107466389D01*
X141960632Y-107466387D01*
X141962797Y-107459861D01*
X141963509Y-107452919D01*
X141973172Y-107358598D01*
X141973500Y-107355400D01*
X141973500Y-107352096D01*
X142507000Y-107352096D01*
X142507337Y-107358611D01*
X142517256Y-107454203D01*
X142520150Y-107467602D01*
X142571588Y-107621783D01*
X142577762Y-107634962D01*
X142663063Y-107772807D01*
X142672099Y-107784208D01*
X142786830Y-107898739D01*
X142798241Y-107907751D01*
X142936245Y-107992818D01*
X142949423Y-107998962D01*
X143103716Y-108050139D01*
X143117081Y-108053005D01*
X143211439Y-108062672D01*
X143217855Y-108063000D01*
X143455385Y-108063000D01*
X143470624Y-108058525D01*
X143471829Y-108057135D01*
X143473500Y-108049452D01*
X143473500Y-108044885D01*
X143981500Y-108044885D01*
X143985975Y-108060124D01*
X143987365Y-108061329D01*
X143995048Y-108063000D01*
X144237096Y-108063000D01*
X144243611Y-108062663D01*
X144339203Y-108052744D01*
X144352602Y-108049850D01*
X144506783Y-107998412D01*
X144519962Y-107992238D01*
X144657807Y-107906937D01*
X144669208Y-107897901D01*
X144783739Y-107783170D01*
X144792751Y-107771759D01*
X144877818Y-107633755D01*
X144883962Y-107620577D01*
X144935139Y-107466284D01*
X144938005Y-107452919D01*
X144947672Y-107358561D01*
X144948000Y-107352145D01*
X144948000Y-106952115D01*
X144943525Y-106936876D01*
X144942135Y-106935671D01*
X144934452Y-106934000D01*
X143999615Y-106934000D01*
X143984376Y-106938475D01*
X143983171Y-106939865D01*
X143981500Y-106947548D01*
X143981500Y-108044885D01*
X143473500Y-108044885D01*
X143473500Y-106952115D01*
X143469025Y-106936876D01*
X143467635Y-106935671D01*
X143459952Y-106934000D01*
X142525115Y-106934000D01*
X142509876Y-106938475D01*
X142508671Y-106939865D01*
X142507000Y-106947548D01*
X142507000Y-107352096D01*
X141973500Y-107352096D01*
X141973500Y-106407885D01*
X142507000Y-106407885D01*
X142511475Y-106423124D01*
X142512865Y-106424329D01*
X142520548Y-106426000D01*
X143455385Y-106426000D01*
X143470624Y-106421525D01*
X143471829Y-106420135D01*
X143473500Y-106412452D01*
X143473500Y-106407885D01*
X143981500Y-106407885D01*
X143985975Y-106423124D01*
X143987365Y-106424329D01*
X143995048Y-106426000D01*
X144929885Y-106426000D01*
X144945124Y-106421525D01*
X144946329Y-106420135D01*
X144948000Y-106412452D01*
X144948000Y-106007904D01*
X144947663Y-106001389D01*
X144937744Y-105905797D01*
X144934850Y-105892398D01*
X144883412Y-105738217D01*
X144877238Y-105725038D01*
X144791937Y-105587193D01*
X144782901Y-105575792D01*
X144668170Y-105461261D01*
X144656759Y-105452249D01*
X144518755Y-105367182D01*
X144505577Y-105361038D01*
X144351284Y-105309861D01*
X144337919Y-105306995D01*
X144243561Y-105297328D01*
X144237144Y-105297000D01*
X143999615Y-105297000D01*
X143984376Y-105301475D01*
X143983171Y-105302865D01*
X143981500Y-105310548D01*
X143981500Y-106407885D01*
X143473500Y-106407885D01*
X143473500Y-105315115D01*
X143469025Y-105299876D01*
X143467635Y-105298671D01*
X143459952Y-105297000D01*
X143217904Y-105297000D01*
X143211389Y-105297337D01*
X143115797Y-105307256D01*
X143102398Y-105310150D01*
X142948217Y-105361588D01*
X142935038Y-105367762D01*
X142797193Y-105453063D01*
X142785792Y-105462099D01*
X142671261Y-105576830D01*
X142662249Y-105588241D01*
X142577182Y-105726245D01*
X142571038Y-105739423D01*
X142519861Y-105893716D01*
X142516995Y-105907081D01*
X142507328Y-106001439D01*
X142507000Y-106007856D01*
X142507000Y-106407885D01*
X141973500Y-106407885D01*
X141973500Y-106004600D01*
X141973163Y-106001350D01*
X141963238Y-105905693D01*
X141963237Y-105905689D01*
X141962526Y-105898835D01*
X141959206Y-105888882D01*
X141908868Y-105738003D01*
X141906550Y-105731055D01*
X141813478Y-105580652D01*
X141688303Y-105455695D01*
X141537738Y-105362885D01*
X141457995Y-105336436D01*
X141376389Y-105309368D01*
X141376387Y-105309368D01*
X141369861Y-105307203D01*
X141363025Y-105306503D01*
X141363022Y-105306502D01*
X141319969Y-105302091D01*
X141265400Y-105296500D01*
X140459500Y-105296500D01*
X140391379Y-105276498D01*
X140344886Y-105222842D01*
X140333500Y-105170500D01*
X140333500Y-102779197D01*
X140353502Y-102711076D01*
X140407158Y-102664583D01*
X140419623Y-102659674D01*
X140467002Y-102643867D01*
X140467004Y-102643866D01*
X140473946Y-102641550D01*
X140624348Y-102548478D01*
X140749305Y-102423303D01*
X140791299Y-102355176D01*
X140838275Y-102278968D01*
X140838276Y-102278966D01*
X140842115Y-102272738D01*
X140897797Y-102104861D01*
X140908500Y-102000400D01*
X140908500Y-101644599D01*
X147907001Y-101644599D01*
X147907338Y-101651118D01*
X147917257Y-101746710D01*
X147920149Y-101760104D01*
X147971588Y-101914288D01*
X147977761Y-101927466D01*
X148063063Y-102065311D01*
X148072099Y-102076712D01*
X148186829Y-102191243D01*
X148198240Y-102200255D01*
X148336243Y-102285320D01*
X148349424Y-102291467D01*
X148503710Y-102342642D01*
X148517086Y-102345509D01*
X148611438Y-102355176D01*
X148617854Y-102355504D01*
X148730385Y-102355504D01*
X148745624Y-102351029D01*
X148746829Y-102349639D01*
X148748500Y-102341956D01*
X148748500Y-101394619D01*
X148744025Y-101379380D01*
X148742635Y-101378175D01*
X148734952Y-101376504D01*
X147925116Y-101376504D01*
X147909877Y-101380979D01*
X147908672Y-101382369D01*
X147907001Y-101390052D01*
X147907001Y-101644599D01*
X140908500Y-101644599D01*
X140908500Y-101199600D01*
X140897526Y-101093834D01*
X140841550Y-100926054D01*
X140794727Y-100850389D01*
X147907000Y-100850389D01*
X147911475Y-100865628D01*
X147912865Y-100866833D01*
X147920548Y-100868504D01*
X148730385Y-100868504D01*
X148745624Y-100864029D01*
X148746829Y-100862639D01*
X148748500Y-100854956D01*
X148748500Y-99907620D01*
X148744025Y-99892381D01*
X148742635Y-99891176D01*
X148734952Y-99889505D01*
X148617905Y-99889505D01*
X148611386Y-99889842D01*
X148515794Y-99899761D01*
X148502400Y-99902653D01*
X148348216Y-99954092D01*
X148335038Y-99960265D01*
X148197193Y-100045567D01*
X148185792Y-100054603D01*
X148071261Y-100169333D01*
X148062249Y-100180744D01*
X147977184Y-100318747D01*
X147971037Y-100331928D01*
X147919862Y-100486214D01*
X147916995Y-100499590D01*
X147907328Y-100593942D01*
X147907000Y-100600359D01*
X147907000Y-100850389D01*
X140794727Y-100850389D01*
X140748478Y-100775652D01*
X140661891Y-100689216D01*
X140627812Y-100626934D01*
X140632815Y-100556114D01*
X140661736Y-100511025D01*
X140744134Y-100428483D01*
X140749305Y-100423303D01*
X140806506Y-100330506D01*
X140838275Y-100278968D01*
X140838276Y-100278966D01*
X140842115Y-100272738D01*
X140876756Y-100168297D01*
X140895632Y-100111389D01*
X140895632Y-100111387D01*
X140897797Y-100104861D01*
X140908500Y-100000400D01*
X140908500Y-99199600D01*
X140897526Y-99093834D01*
X140841550Y-98926054D01*
X140748478Y-98775652D01*
X140623303Y-98650695D01*
X140617072Y-98646854D01*
X140478968Y-98561725D01*
X140478966Y-98561724D01*
X140472738Y-98557885D01*
X140419832Y-98540337D01*
X140361473Y-98499906D01*
X140334236Y-98434342D01*
X140333500Y-98420744D01*
X140333500Y-96159197D01*
X140353502Y-96091076D01*
X140407158Y-96044583D01*
X140419623Y-96039674D01*
X140467002Y-96023867D01*
X140467004Y-96023866D01*
X140473946Y-96021550D01*
X140624348Y-95928478D01*
X140749305Y-95803303D01*
X140830878Y-95670968D01*
X140838275Y-95658968D01*
X140838276Y-95658966D01*
X140842115Y-95652738D01*
X140897797Y-95484861D01*
X140899177Y-95471399D01*
X140908172Y-95383598D01*
X140908500Y-95380400D01*
X140908500Y-95374500D01*
X140928502Y-95306379D01*
X140982158Y-95259886D01*
X141034500Y-95248500D01*
X144851406Y-95248500D01*
X144919527Y-95268502D01*
X144966020Y-95322158D01*
X144976124Y-95392432D01*
X144946630Y-95457012D01*
X144940501Y-95463595D01*
X144829501Y-95574595D01*
X144767189Y-95608621D01*
X144740406Y-95611500D01*
X144684513Y-95611500D01*
X144678061Y-95612872D01*
X144678056Y-95612872D01*
X144621038Y-95624992D01*
X144497712Y-95651206D01*
X144491682Y-95653891D01*
X144491681Y-95653891D01*
X144329278Y-95726197D01*
X144329276Y-95726198D01*
X144323248Y-95728882D01*
X144168747Y-95841134D01*
X144164326Y-95846044D01*
X144164325Y-95846045D01*
X144089358Y-95929305D01*
X144040960Y-95983056D01*
X143984935Y-96080094D01*
X143974001Y-96099033D01*
X143945473Y-96148444D01*
X143886458Y-96330072D01*
X143866496Y-96520000D01*
X143867186Y-96526565D01*
X143884476Y-96691067D01*
X143886458Y-96709928D01*
X143945473Y-96891556D01*
X144040960Y-97056944D01*
X144168747Y-97198866D01*
X144323248Y-97311118D01*
X144329276Y-97313802D01*
X144329278Y-97313803D01*
X144491681Y-97386109D01*
X144497712Y-97388794D01*
X144591112Y-97408647D01*
X144678056Y-97427128D01*
X144678061Y-97427128D01*
X144684513Y-97428500D01*
X144875487Y-97428500D01*
X144881939Y-97427128D01*
X144881944Y-97427128D01*
X144968888Y-97408647D01*
X145062288Y-97388794D01*
X145068319Y-97386109D01*
X145230722Y-97313803D01*
X145230724Y-97313802D01*
X145236752Y-97311118D01*
X145391253Y-97198866D01*
X145519040Y-97056944D01*
X145614527Y-96891556D01*
X145673542Y-96709928D01*
X145675525Y-96691067D01*
X145681803Y-96631329D01*
X145708816Y-96565673D01*
X145767038Y-96525043D01*
X145807113Y-96518500D01*
X147612550Y-96518500D01*
X147680671Y-96538502D01*
X147693771Y-96549059D01*
X147693825Y-96548989D01*
X147700084Y-96553844D01*
X147705693Y-96559453D01*
X147712517Y-96563489D01*
X147712520Y-96563491D01*
X147716210Y-96565673D01*
X147848899Y-96644145D01*
X147856510Y-96646356D01*
X147856512Y-96646357D01*
X147908731Y-96661528D01*
X148008669Y-96690562D01*
X148015074Y-96691066D01*
X148015079Y-96691067D01*
X148043542Y-96693307D01*
X148043550Y-96693307D01*
X148045998Y-96693500D01*
X149829002Y-96693500D01*
X149831450Y-96693307D01*
X149831458Y-96693307D01*
X149859921Y-96691067D01*
X149859926Y-96691066D01*
X149866331Y-96690562D01*
X149966269Y-96661528D01*
X150018488Y-96646357D01*
X150018490Y-96646356D01*
X150026101Y-96644145D01*
X150158790Y-96565673D01*
X150162480Y-96563491D01*
X150162483Y-96563489D01*
X150169307Y-96559453D01*
X150286953Y-96441807D01*
X150290989Y-96434983D01*
X150290991Y-96434980D01*
X150367608Y-96305427D01*
X150371645Y-96298601D01*
X150418062Y-96138831D01*
X150420755Y-96104614D01*
X150446041Y-96038273D01*
X150503179Y-95996133D01*
X150546367Y-95988500D01*
X152278633Y-95988500D01*
X152346754Y-96008502D01*
X152393247Y-96062158D01*
X152404245Y-96104614D01*
X152406938Y-96138831D01*
X152453355Y-96298601D01*
X152457391Y-96305425D01*
X152457749Y-96306253D01*
X152466446Y-96376715D01*
X152431207Y-96445389D01*
X151490486Y-97386109D01*
X150685247Y-98191348D01*
X150676961Y-98198888D01*
X150670482Y-98203000D01*
X150665057Y-98208777D01*
X150623857Y-98252651D01*
X150621102Y-98255493D01*
X150601365Y-98275230D01*
X150598885Y-98278427D01*
X150591182Y-98287447D01*
X150560914Y-98319679D01*
X150557095Y-98326625D01*
X150557093Y-98326628D01*
X150551152Y-98337434D01*
X150540301Y-98353953D01*
X150527886Y-98369959D01*
X150524741Y-98377228D01*
X150524738Y-98377232D01*
X150510326Y-98410537D01*
X150505109Y-98421187D01*
X150483805Y-98459940D01*
X150481834Y-98467615D01*
X150481834Y-98467616D01*
X150478767Y-98479562D01*
X150472363Y-98498266D01*
X150464319Y-98516855D01*
X150463080Y-98524678D01*
X150463077Y-98524688D01*
X150457401Y-98560524D01*
X150454995Y-98572144D01*
X150444000Y-98614970D01*
X150444000Y-98635224D01*
X150442449Y-98654934D01*
X150439280Y-98674943D01*
X150440026Y-98682835D01*
X150443441Y-98718961D01*
X150444000Y-98730819D01*
X150444000Y-99868458D01*
X150423998Y-99936579D01*
X150384303Y-99975602D01*
X150338978Y-100003650D01*
X150265652Y-100049026D01*
X150140695Y-100174201D01*
X150137898Y-100178739D01*
X150080647Y-100219328D01*
X150009724Y-100222558D01*
X149948313Y-100186932D01*
X149940938Y-100178436D01*
X149932902Y-100168297D01*
X149818171Y-100053765D01*
X149806760Y-100044753D01*
X149668757Y-99959688D01*
X149655576Y-99953541D01*
X149501290Y-99902366D01*
X149487914Y-99899499D01*
X149393562Y-99889832D01*
X149387145Y-99889504D01*
X149274615Y-99889504D01*
X149259376Y-99893979D01*
X149258171Y-99895369D01*
X149256500Y-99903052D01*
X149256500Y-102337388D01*
X149260975Y-102352627D01*
X149262365Y-102353832D01*
X149270048Y-102355503D01*
X149387095Y-102355503D01*
X149393614Y-102355166D01*
X149489206Y-102345247D01*
X149502600Y-102342355D01*
X149656784Y-102290916D01*
X149669962Y-102284743D01*
X149807807Y-102199441D01*
X149819208Y-102190405D01*
X149933738Y-102075676D01*
X149940794Y-102066742D01*
X149998712Y-102025681D01*
X150069635Y-102022451D01*
X150131046Y-102058078D01*
X150137846Y-102065911D01*
X150141522Y-102071852D01*
X150266697Y-102196809D01*
X150272927Y-102200649D01*
X150272928Y-102200650D01*
X150410288Y-102285320D01*
X150417262Y-102289619D01*
X150521716Y-102324265D01*
X150580075Y-102364694D01*
X150607312Y-102430258D01*
X150594779Y-102500140D01*
X150571143Y-102532952D01*
X147369500Y-105734595D01*
X147307188Y-105768621D01*
X147280405Y-105771500D01*
X147224513Y-105771500D01*
X147218061Y-105772872D01*
X147218056Y-105772872D01*
X147131113Y-105791353D01*
X147037712Y-105811206D01*
X147031682Y-105813891D01*
X147031681Y-105813891D01*
X146869278Y-105886197D01*
X146869276Y-105886198D01*
X146863248Y-105888882D01*
X146857907Y-105892762D01*
X146857906Y-105892763D01*
X146807843Y-105929136D01*
X146708747Y-106001134D01*
X146704326Y-106006044D01*
X146704325Y-106006045D01*
X146673575Y-106040197D01*
X146580960Y-106143056D01*
X146485473Y-106308444D01*
X146426458Y-106490072D01*
X146406496Y-106680000D01*
X146426458Y-106869928D01*
X146485473Y-107051556D01*
X146580960Y-107216944D01*
X146585378Y-107221851D01*
X146585379Y-107221852D01*
X146704325Y-107353955D01*
X146708747Y-107358866D01*
X146807843Y-107430864D01*
X146856595Y-107466284D01*
X146863248Y-107471118D01*
X146869276Y-107473802D01*
X146869278Y-107473803D01*
X147031681Y-107546109D01*
X147037712Y-107548794D01*
X147131113Y-107568647D01*
X147218056Y-107587128D01*
X147218061Y-107587128D01*
X147224513Y-107588500D01*
X147415487Y-107588500D01*
X147421939Y-107587128D01*
X147421944Y-107587128D01*
X147508888Y-107568647D01*
X147602288Y-107548794D01*
X147608319Y-107546109D01*
X147770722Y-107473803D01*
X147770724Y-107473802D01*
X147776752Y-107471118D01*
X147783406Y-107466284D01*
X147832157Y-107430864D01*
X147931253Y-107358866D01*
X147935675Y-107353955D01*
X148054621Y-107221852D01*
X148054622Y-107221851D01*
X148059040Y-107216944D01*
X148154527Y-107051556D01*
X148213542Y-106869928D01*
X148230907Y-106704706D01*
X148257920Y-106639050D01*
X148267122Y-106628782D01*
X165492247Y-89403657D01*
X165500537Y-89396113D01*
X165507018Y-89392000D01*
X165553659Y-89342332D01*
X165556413Y-89339491D01*
X165576134Y-89319770D01*
X165578612Y-89316575D01*
X165586318Y-89307553D01*
X165611158Y-89281101D01*
X165616586Y-89275321D01*
X165626346Y-89257568D01*
X165637199Y-89241045D01*
X165644753Y-89231306D01*
X165649613Y-89225041D01*
X165667176Y-89184457D01*
X165672383Y-89173827D01*
X165693695Y-89135060D01*
X165695666Y-89127383D01*
X165695668Y-89127378D01*
X165698732Y-89115442D01*
X165705138Y-89096730D01*
X165710033Y-89085419D01*
X165713181Y-89078145D01*
X165714421Y-89070317D01*
X165714423Y-89070310D01*
X165720099Y-89034476D01*
X165722505Y-89022856D01*
X165731528Y-88987711D01*
X165731528Y-88987710D01*
X165733500Y-88980030D01*
X165733500Y-88959776D01*
X165735051Y-88940065D01*
X165736980Y-88927886D01*
X165738220Y-88920057D01*
X165734059Y-88876038D01*
X165733500Y-88864181D01*
X165733500Y-88539197D01*
X165753502Y-88471076D01*
X165807158Y-88424583D01*
X165819623Y-88419674D01*
X165867002Y-88403867D01*
X165867004Y-88403866D01*
X165873946Y-88401550D01*
X165894484Y-88388841D01*
X166018120Y-88312332D01*
X166024348Y-88308478D01*
X166149305Y-88183303D01*
X166242115Y-88032738D01*
X166297797Y-87864861D01*
X166308500Y-87760400D01*
X166308500Y-86959600D01*
X166305118Y-86927006D01*
X166298238Y-86860692D01*
X166298237Y-86860688D01*
X166297526Y-86853834D01*
X166292037Y-86837380D01*
X166243868Y-86693002D01*
X166241550Y-86686054D01*
X166148478Y-86535652D01*
X166061891Y-86449216D01*
X166027812Y-86386934D01*
X166032815Y-86316114D01*
X166061736Y-86271025D01*
X166144134Y-86188483D01*
X166149305Y-86183303D01*
X166229504Y-86053197D01*
X166238275Y-86038968D01*
X166238276Y-86038966D01*
X166242115Y-86032738D01*
X166268564Y-85952995D01*
X166295632Y-85871389D01*
X166295632Y-85871387D01*
X166297797Y-85864861D01*
X166301495Y-85828774D01*
X166308172Y-85763598D01*
X166308500Y-85760400D01*
X166308500Y-84959600D01*
X166303569Y-84912072D01*
X166298238Y-84860692D01*
X166298237Y-84860688D01*
X166297526Y-84853834D01*
X166290063Y-84831463D01*
X166243868Y-84693002D01*
X166241550Y-84686054D01*
X166148478Y-84535652D01*
X166023303Y-84410695D01*
X166011631Y-84403500D01*
X165878968Y-84321725D01*
X165878966Y-84321724D01*
X165872738Y-84317885D01*
X165778736Y-84286706D01*
X165711389Y-84264368D01*
X165711387Y-84264368D01*
X165704861Y-84262203D01*
X165698025Y-84261503D01*
X165698022Y-84261502D01*
X165654969Y-84257091D01*
X165600400Y-84251500D01*
X164599600Y-84251500D01*
X164596354Y-84251837D01*
X164596350Y-84251837D01*
X164500692Y-84261762D01*
X164500688Y-84261763D01*
X164493834Y-84262474D01*
X164487298Y-84264655D01*
X164487296Y-84264655D01*
X164421202Y-84286706D01*
X164326054Y-84318450D01*
X164175652Y-84411522D01*
X164050695Y-84536697D01*
X164046855Y-84542927D01*
X164046854Y-84542928D01*
X163970611Y-84666616D01*
X163917838Y-84714110D01*
X163863351Y-84726500D01*
X158419595Y-84726500D01*
X158351474Y-84706498D01*
X158330500Y-84689595D01*
X157085405Y-83444500D01*
X157051379Y-83382188D01*
X157048500Y-83355405D01*
X157048500Y-82694600D01*
X157048163Y-82691350D01*
X157038238Y-82595692D01*
X157038237Y-82595688D01*
X157037526Y-82588834D01*
X157021734Y-82541498D01*
X156983868Y-82428002D01*
X156981550Y-82421054D01*
X156888478Y-82270652D01*
X156763303Y-82145695D01*
X156757072Y-82141854D01*
X156618968Y-82056725D01*
X156618966Y-82056724D01*
X156612738Y-82052885D01*
X156452254Y-81999655D01*
X156451389Y-81999368D01*
X156451387Y-81999368D01*
X156444861Y-81997203D01*
X156438025Y-81996503D01*
X156438022Y-81996502D01*
X156394969Y-81992091D01*
X156340400Y-81986500D01*
X155539600Y-81986500D01*
X155536354Y-81986837D01*
X155536350Y-81986837D01*
X155440692Y-81996762D01*
X155440688Y-81996763D01*
X155433834Y-81997474D01*
X155427298Y-81999655D01*
X155427296Y-81999655D01*
X155295194Y-82043728D01*
X155266054Y-82053450D01*
X155115652Y-82146522D01*
X155110479Y-82151704D01*
X155029216Y-82233109D01*
X154966934Y-82267188D01*
X154896114Y-82262185D01*
X154851025Y-82233264D01*
X154768483Y-82150866D01*
X154763303Y-82145695D01*
X154757072Y-82141854D01*
X154618968Y-82056725D01*
X154618966Y-82056724D01*
X154612738Y-82052885D01*
X154452254Y-81999655D01*
X154451389Y-81999368D01*
X154451387Y-81999368D01*
X154444861Y-81997203D01*
X154438025Y-81996503D01*
X154438022Y-81996502D01*
X154394969Y-81992091D01*
X154340400Y-81986500D01*
X153539600Y-81986500D01*
X153536354Y-81986837D01*
X153536350Y-81986837D01*
X153440692Y-81996762D01*
X153440688Y-81996763D01*
X153433834Y-81997474D01*
X153427298Y-81999655D01*
X153427296Y-81999655D01*
X153295194Y-82043728D01*
X153266054Y-82053450D01*
X153115652Y-82146522D01*
X152990695Y-82271697D01*
X152986855Y-82277927D01*
X152986854Y-82277928D01*
X152927213Y-82374684D01*
X152897885Y-82422262D01*
X152885451Y-82459749D01*
X152880337Y-82475168D01*
X152839906Y-82533527D01*
X152774342Y-82560764D01*
X152760744Y-82561500D01*
X152089595Y-82561500D01*
X152021474Y-82541498D01*
X152000500Y-82524595D01*
X148267122Y-78791217D01*
X148233096Y-78728905D01*
X148230907Y-78715292D01*
X148214232Y-78556635D01*
X148214232Y-78556633D01*
X148213542Y-78550072D01*
X148154527Y-78368444D01*
X148059040Y-78203056D01*
X147931253Y-78061134D01*
X147776752Y-77948882D01*
X147770724Y-77946198D01*
X147770722Y-77946197D01*
X147608319Y-77873891D01*
X147608318Y-77873891D01*
X147602288Y-77871206D01*
X147508888Y-77851353D01*
X147421944Y-77832872D01*
X147421939Y-77832872D01*
X147415487Y-77831500D01*
X147224513Y-77831500D01*
X147218061Y-77832872D01*
X147218056Y-77832872D01*
X147131112Y-77851353D01*
X147037712Y-77871206D01*
X147031682Y-77873891D01*
X147031681Y-77873891D01*
X146869278Y-77946197D01*
X146869276Y-77946198D01*
X146863248Y-77948882D01*
X146708747Y-78061134D01*
X146580960Y-78203056D01*
X146485473Y-78368444D01*
X146426458Y-78550072D01*
X146406496Y-78740000D01*
X146426458Y-78929928D01*
X146485473Y-79111556D01*
X146580960Y-79276944D01*
X146708747Y-79418866D01*
X146863248Y-79531118D01*
X146869276Y-79533802D01*
X146869278Y-79533803D01*
X147031681Y-79606109D01*
X147037712Y-79608794D01*
X147131113Y-79628647D01*
X147218056Y-79647128D01*
X147218061Y-79647128D01*
X147224513Y-79648500D01*
X147280406Y-79648500D01*
X147348527Y-79668502D01*
X147369501Y-79685405D01*
X151271343Y-83587247D01*
X151278887Y-83595537D01*
X151283000Y-83602018D01*
X151288777Y-83607443D01*
X151332667Y-83648658D01*
X151335509Y-83651413D01*
X151355230Y-83671134D01*
X151358425Y-83673612D01*
X151367447Y-83681318D01*
X151399679Y-83711586D01*
X151406628Y-83715406D01*
X151417432Y-83721346D01*
X151433956Y-83732199D01*
X151449959Y-83744613D01*
X151490543Y-83762176D01*
X151501173Y-83767383D01*
X151539940Y-83788695D01*
X151547617Y-83790666D01*
X151547622Y-83790668D01*
X151559558Y-83793732D01*
X151578266Y-83800137D01*
X151596855Y-83808181D01*
X151604680Y-83809420D01*
X151604682Y-83809421D01*
X151640519Y-83815097D01*
X151652140Y-83817504D01*
X151687289Y-83826528D01*
X151694970Y-83828500D01*
X151715231Y-83828500D01*
X151734940Y-83830051D01*
X151754943Y-83833219D01*
X151762835Y-83832473D01*
X151768062Y-83831979D01*
X151798954Y-83829059D01*
X151810811Y-83828500D01*
X152760803Y-83828500D01*
X152828924Y-83848502D01*
X152875417Y-83902158D01*
X152880326Y-83914623D01*
X152898450Y-83968946D01*
X152902301Y-83975170D01*
X152902302Y-83975171D01*
X152978126Y-84097700D01*
X152991522Y-84119348D01*
X153116697Y-84244305D01*
X153122927Y-84248145D01*
X153122928Y-84248146D01*
X153232328Y-84315581D01*
X153267262Y-84337115D01*
X153347005Y-84363564D01*
X153428611Y-84390632D01*
X153428613Y-84390632D01*
X153435139Y-84392797D01*
X153441975Y-84393497D01*
X153441978Y-84393498D01*
X153485031Y-84397909D01*
X153539600Y-84403500D01*
X154180500Y-84403500D01*
X154248621Y-84423502D01*
X154295114Y-84477158D01*
X154306500Y-84529500D01*
X154306500Y-85657476D01*
X154286498Y-85725597D01*
X154274142Y-85741779D01*
X154200960Y-85823056D01*
X154105473Y-85988444D01*
X154046458Y-86170072D01*
X154045768Y-86176633D01*
X154045768Y-86176635D01*
X154031911Y-86308478D01*
X154026496Y-86360000D01*
X154027186Y-86366565D01*
X154044958Y-86535652D01*
X154046458Y-86549928D01*
X154105473Y-86731556D01*
X154200960Y-86896944D01*
X154205378Y-86901851D01*
X154205379Y-86901852D01*
X154287452Y-86993003D01*
X154328747Y-87038866D01*
X154483248Y-87151118D01*
X154489276Y-87153802D01*
X154489278Y-87153803D01*
X154537346Y-87175204D01*
X154657712Y-87228794D01*
X154751113Y-87248647D01*
X154838056Y-87267128D01*
X154838061Y-87267128D01*
X154844513Y-87268500D01*
X155035487Y-87268500D01*
X155041939Y-87267128D01*
X155041944Y-87267128D01*
X155128888Y-87248647D01*
X155222288Y-87228794D01*
X155342654Y-87175204D01*
X155390722Y-87153803D01*
X155390724Y-87153802D01*
X155396752Y-87151118D01*
X155551253Y-87038866D01*
X155592548Y-86993003D01*
X155674621Y-86901852D01*
X155674622Y-86901851D01*
X155679040Y-86896944D01*
X155774527Y-86731556D01*
X155833542Y-86549928D01*
X155835043Y-86535652D01*
X155852814Y-86366565D01*
X155853504Y-86360000D01*
X155848089Y-86308478D01*
X155834232Y-86176635D01*
X155834232Y-86176633D01*
X155833542Y-86170072D01*
X155774527Y-85988444D01*
X155679040Y-85823056D01*
X155605863Y-85741785D01*
X155575147Y-85677779D01*
X155573500Y-85657476D01*
X155573500Y-84529500D01*
X155593502Y-84461379D01*
X155647158Y-84414886D01*
X155699500Y-84403500D01*
X156200406Y-84403500D01*
X156268527Y-84423502D01*
X156289501Y-84440405D01*
X157434595Y-85585499D01*
X157468621Y-85647811D01*
X157471500Y-85674594D01*
X157471500Y-89189656D01*
X157451498Y-89257777D01*
X157434595Y-89278751D01*
X155305148Y-91408198D01*
X155242836Y-91442224D01*
X155172021Y-91437159D01*
X155131228Y-91410942D01*
X155131175Y-91411011D01*
X155130402Y-91410411D01*
X155126958Y-91408198D01*
X155119307Y-91400547D01*
X155112483Y-91396511D01*
X155112480Y-91396509D01*
X154982927Y-91319892D01*
X154982928Y-91319892D01*
X154976101Y-91315855D01*
X154968490Y-91313644D01*
X154968488Y-91313643D01*
X154916269Y-91298472D01*
X154816331Y-91269438D01*
X154809926Y-91268934D01*
X154809921Y-91268933D01*
X154781458Y-91266693D01*
X154781450Y-91266693D01*
X154779002Y-91266500D01*
X154027094Y-91266500D01*
X153958973Y-91246498D01*
X153937999Y-91229595D01*
X152587977Y-89879572D01*
X151216152Y-88507747D01*
X151208612Y-88499461D01*
X151204500Y-88492982D01*
X151154848Y-88446356D01*
X151152007Y-88443602D01*
X151132270Y-88423865D01*
X151129073Y-88421385D01*
X151120051Y-88413680D01*
X151109601Y-88403867D01*
X151087821Y-88383414D01*
X151080875Y-88379595D01*
X151080872Y-88379593D01*
X151070066Y-88373652D01*
X151053547Y-88362801D01*
X151053083Y-88362441D01*
X151037541Y-88350386D01*
X151030272Y-88347241D01*
X151030268Y-88347238D01*
X150996963Y-88332826D01*
X150986313Y-88327609D01*
X150947560Y-88306305D01*
X150927937Y-88301267D01*
X150909234Y-88294863D01*
X150897920Y-88289967D01*
X150897919Y-88289967D01*
X150890645Y-88286819D01*
X150882822Y-88285580D01*
X150882812Y-88285577D01*
X150846976Y-88279901D01*
X150835356Y-88277495D01*
X150800211Y-88268472D01*
X150800210Y-88268472D01*
X150792530Y-88266500D01*
X150772276Y-88266500D01*
X150752565Y-88264949D01*
X150740386Y-88263020D01*
X150732557Y-88261780D01*
X150724665Y-88262526D01*
X150688539Y-88265941D01*
X150676681Y-88266500D01*
X148079500Y-88266500D01*
X148011379Y-88246498D01*
X147964886Y-88192842D01*
X147953500Y-88140500D01*
X147953500Y-85622094D01*
X147973502Y-85553973D01*
X147990405Y-85532999D01*
X148282999Y-85240405D01*
X148345311Y-85206379D01*
X148372094Y-85203500D01*
X149320400Y-85203500D01*
X149323646Y-85203163D01*
X149323650Y-85203163D01*
X149419307Y-85193238D01*
X149419311Y-85193237D01*
X149426165Y-85192526D01*
X149432701Y-85190345D01*
X149432703Y-85190345D01*
X149586997Y-85138868D01*
X149593945Y-85136550D01*
X149744348Y-85043478D01*
X149869305Y-84918303D01*
X149883563Y-84895172D01*
X149958275Y-84773968D01*
X149958276Y-84773966D01*
X149962115Y-84767738D01*
X149991275Y-84679824D01*
X150015632Y-84606389D01*
X150015632Y-84606387D01*
X150017797Y-84599861D01*
X150028500Y-84495400D01*
X150028500Y-83144600D01*
X150017526Y-83038835D01*
X150009693Y-83015355D01*
X149963868Y-82878003D01*
X149961550Y-82871055D01*
X149868478Y-82720652D01*
X149743303Y-82595695D01*
X149737072Y-82591854D01*
X149598968Y-82506725D01*
X149598966Y-82506724D01*
X149592738Y-82502885D01*
X149489857Y-82468761D01*
X149431389Y-82449368D01*
X149431387Y-82449368D01*
X149424861Y-82447203D01*
X149418025Y-82446503D01*
X149418022Y-82446502D01*
X149374969Y-82442091D01*
X149320400Y-82436500D01*
X148294600Y-82436500D01*
X148291354Y-82436837D01*
X148291350Y-82436837D01*
X148195693Y-82446762D01*
X148195689Y-82446763D01*
X148188835Y-82447474D01*
X148182299Y-82449655D01*
X148182297Y-82449655D01*
X148125030Y-82468761D01*
X148021055Y-82503450D01*
X147870652Y-82596522D01*
X147745695Y-82721697D01*
X147652885Y-82872262D01*
X147597203Y-83040139D01*
X147586500Y-83144600D01*
X147586500Y-84092905D01*
X147566498Y-84161026D01*
X147549595Y-84182000D01*
X147268595Y-84463000D01*
X147206283Y-84497026D01*
X147135468Y-84491961D01*
X147078632Y-84449414D01*
X147053821Y-84382894D01*
X147053500Y-84373905D01*
X147053500Y-83144600D01*
X147042526Y-83038835D01*
X147034693Y-83015355D01*
X146988868Y-82878003D01*
X146986550Y-82871055D01*
X146893478Y-82720652D01*
X146768303Y-82595695D01*
X146762072Y-82591854D01*
X146623968Y-82506725D01*
X146623966Y-82506724D01*
X146617738Y-82502885D01*
X146514857Y-82468761D01*
X146456389Y-82449368D01*
X146456387Y-82449368D01*
X146449861Y-82447203D01*
X146443025Y-82446503D01*
X146443022Y-82446502D01*
X146399969Y-82442091D01*
X146345400Y-82436500D01*
X145319600Y-82436500D01*
X145316354Y-82436837D01*
X145316350Y-82436837D01*
X145220693Y-82446762D01*
X145220689Y-82446763D01*
X145213835Y-82447474D01*
X145207299Y-82449655D01*
X145207297Y-82449655D01*
X145150030Y-82468761D01*
X145046055Y-82503450D01*
X144895652Y-82596522D01*
X144770695Y-82721697D01*
X144677885Y-82872262D01*
X144622203Y-83040139D01*
X144611500Y-83144600D01*
X144611500Y-84092905D01*
X144591498Y-84161026D01*
X144574595Y-84182000D01*
X143067000Y-85689595D01*
X143004688Y-85723621D01*
X142977905Y-85726500D01*
X142948200Y-85726500D01*
X142880079Y-85706498D01*
X142860853Y-85690157D01*
X142860580Y-85690460D01*
X142855668Y-85686037D01*
X142851253Y-85681134D01*
X142805388Y-85647811D01*
X142702094Y-85572763D01*
X142702093Y-85572762D01*
X142696752Y-85568882D01*
X142690724Y-85566198D01*
X142690722Y-85566197D01*
X142528319Y-85493891D01*
X142528318Y-85493891D01*
X142522288Y-85491206D01*
X142424536Y-85470428D01*
X142341944Y-85452872D01*
X142341939Y-85452872D01*
X142335487Y-85451500D01*
X142144513Y-85451500D01*
X142138061Y-85452872D01*
X142138056Y-85452872D01*
X142055464Y-85470428D01*
X141957712Y-85491206D01*
X141951682Y-85493891D01*
X141951681Y-85493891D01*
X141789278Y-85566197D01*
X141789276Y-85566198D01*
X141783248Y-85568882D01*
X141628747Y-85681134D01*
X141624326Y-85686044D01*
X141624325Y-85686045D01*
X141532352Y-85788192D01*
X141500960Y-85823056D01*
X141405473Y-85988444D01*
X141346458Y-86170072D01*
X141345768Y-86176633D01*
X141345768Y-86176635D01*
X141331911Y-86308478D01*
X141326496Y-86360000D01*
X141327186Y-86366565D01*
X141344958Y-86535652D01*
X141346458Y-86549928D01*
X141405473Y-86731556D01*
X141500960Y-86896944D01*
X141505378Y-86901851D01*
X141505379Y-86901852D01*
X141587452Y-86993003D01*
X141628747Y-87038866D01*
X141783248Y-87151118D01*
X141789276Y-87153802D01*
X141789278Y-87153803D01*
X141837346Y-87175204D01*
X141957712Y-87228794D01*
X142051113Y-87248647D01*
X142138056Y-87267128D01*
X142138061Y-87267128D01*
X142144513Y-87268500D01*
X142335487Y-87268500D01*
X142341939Y-87267128D01*
X142341944Y-87267128D01*
X142428888Y-87248647D01*
X142522288Y-87228794D01*
X142642654Y-87175204D01*
X142690722Y-87153803D01*
X142690724Y-87153802D01*
X142696752Y-87151118D01*
X142851253Y-87038866D01*
X142855668Y-87033963D01*
X142860580Y-87029540D01*
X142861705Y-87030789D01*
X142915014Y-86997949D01*
X142948200Y-86993500D01*
X143213733Y-86993500D01*
X143224916Y-86994027D01*
X143232409Y-86995702D01*
X143240335Y-86995453D01*
X143240336Y-86995453D01*
X143300486Y-86993562D01*
X143304445Y-86993500D01*
X143332356Y-86993500D01*
X143336291Y-86993003D01*
X143336356Y-86992995D01*
X143348193Y-86992062D01*
X143380451Y-86991048D01*
X143384470Y-86990922D01*
X143392389Y-86990673D01*
X143411843Y-86985021D01*
X143431200Y-86981013D01*
X143443430Y-86979468D01*
X143443431Y-86979468D01*
X143451297Y-86978474D01*
X143458668Y-86975555D01*
X143458670Y-86975555D01*
X143492412Y-86962196D01*
X143503642Y-86958351D01*
X143538483Y-86948229D01*
X143538484Y-86948229D01*
X143546093Y-86946018D01*
X143552912Y-86941985D01*
X143552917Y-86941983D01*
X143563528Y-86935707D01*
X143581276Y-86927012D01*
X143600117Y-86919552D01*
X143635887Y-86893564D01*
X143645807Y-86887048D01*
X143677035Y-86868580D01*
X143677038Y-86868578D01*
X143683862Y-86864542D01*
X143698183Y-86850221D01*
X143713217Y-86837380D01*
X143723194Y-86830131D01*
X143729607Y-86825472D01*
X143757798Y-86791395D01*
X143765788Y-86782616D01*
X145307999Y-85240405D01*
X145370311Y-85206379D01*
X145397094Y-85203500D01*
X146345400Y-85203500D01*
X146348646Y-85203163D01*
X146348650Y-85203163D01*
X146444307Y-85193238D01*
X146444311Y-85193237D01*
X146451165Y-85192526D01*
X146457701Y-85190345D01*
X146457703Y-85190345D01*
X146516750Y-85170645D01*
X146587699Y-85168061D01*
X146648783Y-85204244D01*
X146680608Y-85267708D01*
X146681977Y-85286199D01*
X146681780Y-85287443D01*
X146682526Y-85295335D01*
X146685941Y-85331461D01*
X146686500Y-85343319D01*
X146686500Y-88197476D01*
X146666498Y-88265597D01*
X146654142Y-88281779D01*
X146580960Y-88363056D01*
X146485473Y-88528444D01*
X146426458Y-88710072D01*
X146406496Y-88900000D01*
X146407186Y-88906565D01*
X146425220Y-89078145D01*
X146426458Y-89089928D01*
X146485473Y-89271556D01*
X146580960Y-89436944D01*
X146708747Y-89578866D01*
X146726772Y-89591962D01*
X146813019Y-89654624D01*
X146863248Y-89691118D01*
X146869276Y-89693802D01*
X146869278Y-89693803D01*
X147031681Y-89766109D01*
X147037712Y-89768794D01*
X147114308Y-89785075D01*
X147218056Y-89807128D01*
X147218061Y-89807128D01*
X147224513Y-89808500D01*
X147415487Y-89808500D01*
X147421939Y-89807128D01*
X147421944Y-89807128D01*
X147525692Y-89785075D01*
X147602288Y-89768794D01*
X147608319Y-89766109D01*
X147770722Y-89693803D01*
X147770724Y-89693802D01*
X147776752Y-89691118D01*
X147826982Y-89654624D01*
X147923800Y-89584281D01*
X147931253Y-89578866D01*
X147935668Y-89573963D01*
X147940580Y-89569540D01*
X147941705Y-89570789D01*
X147995014Y-89537949D01*
X148028200Y-89533500D01*
X150397906Y-89533500D01*
X150466027Y-89553502D01*
X150487001Y-89570405D01*
X152431207Y-91514611D01*
X152465233Y-91576923D01*
X152457749Y-91653747D01*
X152457391Y-91654575D01*
X152453355Y-91661399D01*
X152451144Y-91669010D01*
X152451143Y-91669012D01*
X152445636Y-91687969D01*
X152406938Y-91821169D01*
X152406434Y-91827574D01*
X152406433Y-91827579D01*
X152404245Y-91855386D01*
X152378959Y-91921727D01*
X152321821Y-91963867D01*
X152278633Y-91971500D01*
X150545862Y-91971500D01*
X150477741Y-91951498D01*
X150431248Y-91897842D01*
X150420250Y-91855381D01*
X150418070Y-91827664D01*
X150415770Y-91815069D01*
X150373393Y-91669210D01*
X150367148Y-91654779D01*
X150290589Y-91525322D01*
X150280949Y-91512896D01*
X150174604Y-91406551D01*
X150162178Y-91396911D01*
X150032721Y-91320352D01*
X150018290Y-91314107D01*
X149872435Y-91271731D01*
X149859833Y-91269430D01*
X149831416Y-91267193D01*
X149826486Y-91267000D01*
X149209615Y-91267000D01*
X149194376Y-91271475D01*
X149193171Y-91272865D01*
X149191500Y-91280548D01*
X149191500Y-92203000D01*
X149171498Y-92271121D01*
X149117842Y-92317614D01*
X149065500Y-92329000D01*
X147475622Y-92329000D01*
X147462091Y-92332973D01*
X147460956Y-92340871D01*
X147501607Y-92480790D01*
X147507852Y-92495221D01*
X147523311Y-92521361D01*
X147540770Y-92590177D01*
X147518253Y-92657509D01*
X147462909Y-92701978D01*
X147414857Y-92711500D01*
X144349595Y-92711500D01*
X144281474Y-92691498D01*
X144260500Y-92674595D01*
X143389510Y-91803605D01*
X147462561Y-91803605D01*
X147462601Y-91817706D01*
X147469870Y-91821000D01*
X148665385Y-91821000D01*
X148680624Y-91816525D01*
X148681829Y-91815135D01*
X148683500Y-91807452D01*
X148683500Y-91285116D01*
X148679025Y-91269877D01*
X148677635Y-91268672D01*
X148669952Y-91267001D01*
X148048517Y-91267001D01*
X148043580Y-91267195D01*
X148015164Y-91269430D01*
X148002569Y-91271730D01*
X147856710Y-91314107D01*
X147842279Y-91320352D01*
X147712822Y-91396911D01*
X147700396Y-91406551D01*
X147594051Y-91512896D01*
X147584411Y-91525322D01*
X147507852Y-91654779D01*
X147501607Y-91669210D01*
X147462561Y-91803605D01*
X143389510Y-91803605D01*
X138385405Y-86799500D01*
X138351379Y-86737188D01*
X138348500Y-86710405D01*
X138348500Y-85887100D01*
X138345483Y-85858022D01*
X138338238Y-85788192D01*
X138338237Y-85788188D01*
X138337526Y-85781334D01*
X138318272Y-85723621D01*
X138283868Y-85620502D01*
X138281550Y-85613554D01*
X138188478Y-85463152D01*
X138063303Y-85338195D01*
X138057072Y-85334354D01*
X137918968Y-85249225D01*
X137918966Y-85249224D01*
X137912738Y-85245385D01*
X137755519Y-85193238D01*
X137751389Y-85191868D01*
X137751387Y-85191868D01*
X137744861Y-85189703D01*
X137738025Y-85189003D01*
X137738022Y-85189002D01*
X137694969Y-85184591D01*
X137640400Y-85179000D01*
X136689600Y-85179000D01*
X136686354Y-85179337D01*
X136686350Y-85179337D01*
X136590692Y-85189262D01*
X136590688Y-85189263D01*
X136583834Y-85189974D01*
X136577298Y-85192155D01*
X136577296Y-85192155D01*
X136534662Y-85206379D01*
X136416054Y-85245950D01*
X136265652Y-85339022D01*
X136140695Y-85464197D01*
X136136855Y-85470427D01*
X136136854Y-85470428D01*
X136073774Y-85572763D01*
X136047885Y-85614762D01*
X136028040Y-85674594D01*
X135998519Y-85763598D01*
X135992203Y-85782639D01*
X135981500Y-85887100D01*
X135981500Y-87062900D01*
X122428500Y-87062900D01*
X122428500Y-84184595D01*
X135982001Y-84184595D01*
X135982338Y-84191114D01*
X135992257Y-84286706D01*
X135995149Y-84300100D01*
X136046588Y-84454284D01*
X136052761Y-84467462D01*
X136138063Y-84605307D01*
X136147099Y-84616708D01*
X136261829Y-84731239D01*
X136273240Y-84740251D01*
X136411243Y-84825316D01*
X136424424Y-84831463D01*
X136578710Y-84882638D01*
X136592086Y-84885505D01*
X136686438Y-84895172D01*
X136692854Y-84895500D01*
X136892885Y-84895500D01*
X136908124Y-84891025D01*
X136909329Y-84889635D01*
X136911000Y-84881952D01*
X136911000Y-84877384D01*
X137419000Y-84877384D01*
X137423475Y-84892623D01*
X137424865Y-84893828D01*
X137432548Y-84895499D01*
X137637095Y-84895499D01*
X137643614Y-84895162D01*
X137739206Y-84885243D01*
X137752600Y-84882351D01*
X137906784Y-84830912D01*
X137919962Y-84824739D01*
X138057807Y-84739437D01*
X138069208Y-84730401D01*
X138183739Y-84615671D01*
X138192751Y-84604260D01*
X138277816Y-84466257D01*
X138283963Y-84453076D01*
X138335138Y-84298790D01*
X138338005Y-84285414D01*
X138347672Y-84191062D01*
X138348000Y-84184646D01*
X138348000Y-83872115D01*
X138343525Y-83856876D01*
X138342135Y-83855671D01*
X138334452Y-83854000D01*
X137437115Y-83854000D01*
X137421876Y-83858475D01*
X137420671Y-83859865D01*
X137419000Y-83867548D01*
X137419000Y-84877384D01*
X136911000Y-84877384D01*
X136911000Y-83872115D01*
X136906525Y-83856876D01*
X136905135Y-83855671D01*
X136897452Y-83854000D01*
X136000116Y-83854000D01*
X135984877Y-83858475D01*
X135983672Y-83859865D01*
X135982001Y-83867548D01*
X135982001Y-84184595D01*
X122428500Y-84184595D01*
X122428500Y-83327885D01*
X135982000Y-83327885D01*
X135986475Y-83343124D01*
X135987865Y-83344329D01*
X135995548Y-83346000D01*
X136892885Y-83346000D01*
X136908124Y-83341525D01*
X136909329Y-83340135D01*
X136911000Y-83332452D01*
X136911000Y-83327885D01*
X137419000Y-83327885D01*
X137423475Y-83343124D01*
X137424865Y-83344329D01*
X137432548Y-83346000D01*
X138329884Y-83346000D01*
X138345123Y-83341525D01*
X138346328Y-83340135D01*
X138347999Y-83332452D01*
X138347999Y-83015405D01*
X138347662Y-83008886D01*
X138337743Y-82913294D01*
X138334851Y-82899900D01*
X138283412Y-82745716D01*
X138277239Y-82732538D01*
X138191937Y-82594693D01*
X138182901Y-82583292D01*
X138068171Y-82468761D01*
X138056760Y-82459749D01*
X137918757Y-82374684D01*
X137905576Y-82368537D01*
X137751290Y-82317362D01*
X137737914Y-82314495D01*
X137643562Y-82304828D01*
X137637145Y-82304500D01*
X137437115Y-82304500D01*
X137421876Y-82308975D01*
X137420671Y-82310365D01*
X137419000Y-82318048D01*
X137419000Y-83327885D01*
X136911000Y-83327885D01*
X136911000Y-82322616D01*
X136906525Y-82307377D01*
X136905135Y-82306172D01*
X136897452Y-82304501D01*
X136692905Y-82304501D01*
X136686386Y-82304838D01*
X136590794Y-82314757D01*
X136577400Y-82317649D01*
X136423216Y-82369088D01*
X136410038Y-82375261D01*
X136272193Y-82460563D01*
X136260792Y-82469599D01*
X136146261Y-82584329D01*
X136137249Y-82595740D01*
X136052184Y-82733743D01*
X136046037Y-82746924D01*
X135994862Y-82901210D01*
X135991995Y-82914586D01*
X135982328Y-83008938D01*
X135982000Y-83015355D01*
X135982000Y-83327885D01*
X122428500Y-83327885D01*
X122428500Y-74294500D01*
X122448502Y-74226379D01*
X122502158Y-74179886D01*
X122554500Y-74168500D01*
X169545500Y-74168500D01*
X169613621Y-74188502D01*
G37*
%TD.AperFunction*%
%TD*%
M02*
